<?xml version="1.0"?>
<svg xmlns="http://www.w3.org/2000/svg" xmlns:xlink="http://www.w3.org/1999/xlink" version="1.1" id="Capa_1" x="0px" y="0px" width="512px" height="512px" viewBox="0 0 512 512" style="enable-background:new 0 0 512 512;" xml:space="preserve" class=""><g><g>
	<g>
		<path d="M256,0C114.609,0,0,114.609,0,256c0,141.391,114.609,256,256,256c141.391,0,256-114.609,256-256    C512,114.609,397.391,0,256,0z M256,472c-119.297,0-216-96.703-216-216S136.703,40,256,40s216,96.703,216,216S375.297,472,256,472    z" data-original="#000000" class="active-path" data-old_color="#000000" fill="#109B88"/>
		<path d="M366.734,256.297c0-63.016-51.095-114.109-114.125-114.109c-5.891,0-11.641,0.578-17.281,1.438    c-11.39-9.72-26.125-15.626-42.25-15.626C157.156,128,128,157.141,128,193.078c0,14.672,4.906,28.172,13.109,39.047    c-1.672,7.797-2.609,15.875-2.609,24.172c0,63.047,51.078,114.141,114.109,114.141c8.094,0,16-0.875,23.609-2.483    C287.656,377.922,302.562,384,318.922,384C354.859,384,384,354.859,384,318.922c0-17.766-7.125-33.844-18.688-45.578    C366.156,267.75,366.734,262.094,366.734,256.297z M305.859,306c-4.484,6.391-11.078,11.391-19.734,15    c-8.656,3.641-18.922,5.438-30.781,5.438c-14.25,0-26-2.469-35.25-7.422c-6.547-3.547-11.875-8.297-15.984-14.25    c-4.094-5.922-6.156-11.703-6.156-17.312c0-3.267,1.234-6.047,3.688-8.359c2.469-2.327,5.609-3.483,9.406-3.483    c3.078,0,5.703,0.891,7.828,2.719c2.125,1.797,3.953,4.484,5.453,8.031c1.844,4.233,3.828,7.75,5.953,10.578    c2.125,2.844,5.141,5.188,9,7.016c3.875,1.844,8.969,2.766,15.25,2.766c8.672,0,15.702-1.844,21.108-5.562    c5.406-3.703,8.125-8.328,8.125-13.892c0-4.391-1.453-7.969-4.375-10.703c-2.922-2.75-6.688-4.844-11.328-6.297    c-4.625-1.438-10.78-2.983-18.546-4.608c-10.359-2.234-19.031-4.845-26.016-7.812c-6.984-3-12.547-7.062-16.625-12.219    c-4.109-5.172-6.156-11.578-6.156-19.219c0-7.312,2.156-13.781,6.5-19.453c4.312-5.656,10.578-10.031,18.797-13.062    c8.203-3.047,17.828-4.562,28.922-4.562c8.844,0,16.516,1,22.969,3.016c6.469,2.016,11.827,4.703,16.094,8.047    c4.25,3.359,7.375,6.875,9.345,10.547c1.969,3.672,2.952,7.266,2.952,10.75c0,3.203-1.233,6.094-3.672,8.656    c-2.469,2.547-5.547,3.844-9.219,3.844c-3.345,0-5.892-0.781-7.625-2.312c-1.734-1.531-3.625-4.047-5.656-7.547    c-2.625-5-5.767-8.922-9.453-11.719c-3.672-2.797-9.577-4.203-17.719-4.203c-7.531,0-13.609,1.516-18.234,4.562    c-4.641,3.031-6.938,6.703-6.938,10.984c0,2.656,0.781,4.953,2.359,6.875c1.562,1.938,3.734,3.578,6.5,4.969    c2.734,1.391,5.531,2.469,8.359,3.281c2.812,0.766,7.469,1.922,13.969,3.422c8.125,1.75,15.484,3.688,22.078,5.797    c6.594,2.109,12.203,4.672,16.828,7.672c4.641,3.031,8.25,6.844,10.828,11.453c2.594,4.609,3.891,10.266,3.891,16.969    C312.594,292.391,310.344,299.609,305.859,306z" data-original="#000000" class="active-path" data-old_color="#000000" fill="#109B88"/>
	</g>
</g></g> </svg>
